# xmcd CD database file generated by MAGIX-FreeDB-MP3_Maker_15 v2.0beta1
# 
# Track frame offsets:
#      150
#      17862
#      38335
#      58022
#      76625
#      95530
#      111706
#      129941
#      147670
#      165617
#      185569
#      209991
#      228044
# 
# Disc length: 3525 seconds
# 
# Revision: 0 
# Processed by: cddbd v1.5.2PL0 Copyright (c) Steve Scherf et al.
# Submitted via: MAGIX-FreeDB-MP3_Maker_15 v2.0beta1
# 
DISCID=b20dc30d
DTITLE=Joan Armatrading - Into the Blues
DYEAR=2007
DGENRE=
TTITLE0=Joan Armatrading - A women in love
TTITLE1=Joan Armatrading - Play the blues
TTITLE2=Joan Armatrading - Into the blues
TTITLE3=Joan Armatrading - Liza
TTITLE4=Joan Armatrading - Secular songs
TTITLE5=Joan Armatrading - My Baby`s gone
TTITLE6=Joan Armatrading - D.N.A.
TTITLE7=Joan Armatrading - Baby blue eyes
TTITLE8=Joan Armatrading - Deep down
TTITLE9=Joan Armatrading - There ain`t a girl alive
TTITLE10=Joan Armatrading - Empty highway
TTITLE11=Joan Armatrading - Mama Papa
TTITLE12=Something`s gotta blow
EXTD=
EXTT0=
EXTT1=
EXTT2=
EXTT3=
EXTT4=
EXTT5=
EXTT6=
EXTT7=
EXTT8=
EXTT9=
EXTT10=
EXTT11=
EXTT12=
PLAYORDER=
